<svg width="115" height="114" viewBox="0 0 115 114" fill="none" xmlns="http://www.w3.org/2000/svg">
<path d="M21 1H102C108.627 1 114 6.37258 114 13V93C114 104.046 105.046 113 94 113H26C12.1929 113 1 101.807 1 88V21C1 9.95431 9.95431 1 21 1Z" fill="#47B5FF" stroke="#DFF6FF" stroke-width="2"/>
<rect x="1" y="8" width="105" height="105" rx="12" fill="#1363DF" stroke="#DFF6FF" stroke-width="2"/>
<path d="M47.08 48.88V60H45.256V55.136H40.024V60H38.2V48.88H40.024V53.648H45.256V48.88H47.08Z" fill="white"/>
<path d="M57.4652 51.184V60H55.6412V58.96C55.3532 59.3227 54.9746 59.6107 54.5052 59.824C54.0466 60.0267 53.5559 60.128 53.0332 60.128C52.3399 60.128 51.7159 59.984 51.1612 59.696C50.6172 59.408 50.1852 58.9813 49.8652 58.416C49.5559 57.8507 49.4012 57.168 49.4012 56.368V51.184H51.2092V56.096C51.2092 56.8853 51.4066 57.4933 51.8012 57.92C52.1959 58.336 52.7346 58.544 53.4172 58.544C54.0999 58.544 54.6386 58.336 55.0332 57.92C55.4386 57.4933 55.6412 56.8853 55.6412 56.096V51.184H57.4652Z" fill="white"/>
<path d="M61.6959 52.496C62.0052 52.0693 62.4265 51.7227 62.9599 51.456C63.5039 51.1787 64.1065 51.04 64.7679 51.04C65.5465 51.04 66.2505 51.2267 66.8799 51.6C67.5092 51.9733 68.0052 52.5067 68.3679 53.2C68.7305 53.8827 68.9119 54.6667 68.9119 55.552C68.9119 56.4373 68.7305 57.232 68.3679 57.936C68.0052 58.6293 67.5039 59.1733 66.8639 59.568C66.2345 59.952 65.5359 60.144 64.7679 60.144C64.0852 60.144 63.4772 60.0107 62.9439 59.744C62.4212 59.4773 62.0052 59.136 61.6959 58.72V60H59.8719V48.16H61.6959V52.496ZM67.0559 55.552C67.0559 54.944 66.9279 54.4213 66.6719 53.984C66.4265 53.536 66.0959 53.2 65.6799 52.976C65.2745 52.7413 64.8372 52.624 64.3679 52.624C63.9092 52.624 63.4719 52.7413 63.0559 52.976C62.6505 53.2107 62.3199 53.552 62.0639 54C61.8185 54.448 61.6959 54.976 61.6959 55.584C61.6959 56.192 61.8185 56.7253 62.0639 57.184C62.3199 57.632 62.6505 57.9733 63.0559 58.208C63.4719 58.4427 63.9092 58.56 64.3679 58.56C64.8372 58.56 65.2745 58.4427 65.6799 58.208C66.0959 57.9627 66.4265 57.6107 66.6719 57.152C66.9279 56.6933 67.0559 56.16 67.0559 55.552Z" fill="white"/>
<path d="M32.776 98.072V101H25.32V98.072H32.776ZM41.9948 98.072V101H34.5388V98.072H41.9948ZM51.2135 98.072V101H43.7575V98.072H51.2135ZM60.4323 98.072V101H52.9763V98.072H60.4323ZM69.651 98.072V101H62.195V98.072H69.651ZM78.8698 98.072V101H71.4138V98.072H78.8698Z" fill="white"/>
</svg>
