<svg width="164" height="113" viewBox="0 0 164 113" fill="none" xmlns="http://www.w3.org/2000/svg">
<path d="M22.3934 99.8548L22.3931 99.8546C15.0819 92.724 11.4359 84.0356 11.4359 73.7284C11.4359 64.8829 14.0984 57.0225 19.4294 50.1117C24.7526 43.2109 31.7032 38.8066 40.3197 36.8815L40.9083 36.75L41.0666 36.1681C43.9178 25.688 49.6094 17.2199 58.1568 10.7315C66.7064 4.24148 76.3822 1 87.2179 1C100.569 1 111.859 5.63209 121.147 14.9094C130.44 24.1914 135.079 35.4695 135.079 48.8037V49.6946L135.964 49.797C143.75 50.6987 150.184 54.0387 155.315 59.8338C160.443 65.6368 163 72.403 163 80.1775C163 88.6297 160.051 95.7832 154.136 101.696C148.215 107.605 141.053 110.551 132.589 110.551H48.8269C38.4984 110.551 29.7059 106.991 22.3934 99.8548Z" fill="#47B5FF" stroke="#DFF6FF" stroke-width="2"/>
<path d="M12.2523 101.303L12.2521 101.303C4.9409 94.1727 1.29486 85.4843 1.29486 75.1771C1.29486 66.3316 3.95736 58.4712 9.28837 51.5604C14.6116 44.6597 21.5622 40.2553 30.1787 38.3302L30.7673 38.1987L30.9256 37.6168C33.7768 27.1367 39.4684 18.6686 48.0158 12.1803C56.5654 5.69019 66.2412 2.44872 77.0769 2.44872C90.428 2.44872 101.718 7.08081 111.006 16.3581C120.299 25.6401 124.938 36.9183 124.938 50.2524V51.1433L125.823 51.2458C133.609 52.1474 140.043 55.4874 145.174 61.2826C150.302 67.0855 152.859 73.8517 152.859 81.6262C152.859 90.0784 149.91 97.2319 143.995 103.145C138.074 109.054 130.912 112 122.448 112H38.6859C28.3573 112 19.5648 108.44 12.2523 101.303Z" fill="#1363DF" stroke="#DFF6FF" stroke-width="2"/>
<path d="M43.632 56.1364V67.2564H41.808V56.1364H43.632Z" fill="white"/>
<path d="M50.4747 58.2964C51.168 58.2964 51.7867 58.4404 52.3307 58.7284C52.8854 59.0164 53.3174 59.4431 53.6267 60.0084C53.936 60.5737 54.0907 61.2564 54.0907 62.0564V67.2564H52.2827V62.3284C52.2827 61.5391 52.0854 60.9364 51.6907 60.5204C51.296 60.0937 50.7574 59.8804 50.0747 59.8804C49.392 59.8804 48.848 60.0937 48.4427 60.5204C48.048 60.9364 47.8507 61.5391 47.8507 62.3284V67.2564H46.0267V58.4404H47.8507V59.4484C48.1494 59.0857 48.528 58.8031 48.9867 58.6004C49.456 58.3977 49.952 58.2964 50.4747 58.2964Z" fill="white"/>
<path d="M58.5453 59.9284V64.8084C58.5453 65.1391 58.62 65.3791 58.7693 65.5284C58.9293 65.6671 59.196 65.7364 59.5693 65.7364H60.6893V67.2564H59.2493C58.428 67.2564 57.7987 67.0644 57.3613 66.6804C56.924 66.2964 56.7053 65.6724 56.7053 64.8084V59.9284H55.6653V58.4404H56.7053V56.2484H58.5453V58.4404H60.6893V59.9284H58.5453Z" fill="white"/>
<path d="M70.4505 62.6324C70.4505 62.9631 70.4291 63.2617 70.3865 63.5284H63.6505C63.7038 64.2324 63.9651 64.7977 64.4345 65.2244C64.9038 65.6511 65.4798 65.8644 66.1625 65.8644C67.1438 65.8644 67.8371 65.4537 68.2425 64.6324H70.2105C69.9438 65.4431 69.4585 66.1097 68.7545 66.6324C68.0611 67.1444 67.1971 67.4004 66.1625 67.4004C65.3198 67.4004 64.5625 67.2137 63.8905 66.8404C63.2291 66.4564 62.7065 65.9231 62.3225 65.2404C61.9491 64.5471 61.7625 63.7471 61.7625 62.8404C61.7625 61.9337 61.9438 61.1391 62.3065 60.4564C62.6798 59.7631 63.1971 59.2297 63.8585 58.8564C64.5305 58.4831 65.2985 58.2964 66.1625 58.2964C66.9945 58.2964 67.7358 58.4777 68.3865 58.8404C69.0371 59.2031 69.5438 59.7151 69.9065 60.3764C70.2691 61.0271 70.4505 61.7791 70.4505 62.6324ZM68.5465 62.0564C68.5358 61.3844 68.2958 60.8457 67.8265 60.4404C67.3571 60.0351 66.7758 59.8324 66.0825 59.8324C65.4531 59.8324 64.9145 60.0351 64.4665 60.4404C64.0185 60.8351 63.7518 61.3737 63.6665 62.0564H68.5465Z" fill="white"/>
<path d="M74.0695 59.7204C74.3361 59.2724 74.6881 58.9257 75.1255 58.6804C75.5735 58.4244 76.1015 58.2964 76.7095 58.2964V60.1844H76.2455C75.5308 60.1844 74.9868 60.3657 74.6135 60.7284C74.2508 61.0911 74.0695 61.7204 74.0695 62.6164V67.2564H72.2455V58.4404H74.0695V59.7204Z" fill="white"/>
<path d="M82.8341 58.2964C83.5274 58.2964 84.1461 58.4404 84.6901 58.7284C85.2447 59.0164 85.6767 59.4431 85.9861 60.0084C86.2954 60.5737 86.4501 61.2564 86.4501 62.0564V67.2564H84.6421V62.3284C84.6421 61.5391 84.4447 60.9364 84.0501 60.5204C83.6554 60.0937 83.1167 59.8804 82.4341 59.8804C81.7514 59.8804 81.2074 60.0937 80.8021 60.5204C80.4074 60.9364 80.2101 61.5391 80.2101 62.3284V67.2564H78.3861V58.4404H80.2101V59.4484C80.5087 59.0857 80.8874 58.8031 81.3461 58.6004C81.8154 58.3977 82.3114 58.2964 82.8341 58.2964Z" fill="white"/>
<path d="M96.8567 62.6324C96.8567 62.9631 96.8354 63.2617 96.7927 63.5284H90.0567C90.11 64.2324 90.3714 64.7977 90.8407 65.2244C91.31 65.6511 91.886 65.8644 92.5687 65.8644C93.55 65.8644 94.2434 65.4537 94.6487 64.6324H96.6167C96.35 65.4431 95.8647 66.1097 95.1607 66.6324C94.4674 67.1444 93.6034 67.4004 92.5687 67.4004C91.726 67.4004 90.9687 67.2137 90.2967 66.8404C89.6354 66.4564 89.1127 65.9231 88.7287 65.2404C88.3554 64.5471 88.1687 63.7471 88.1687 62.8404C88.1687 61.9337 88.35 61.1391 88.7127 60.4564C89.086 59.7631 89.6034 59.2297 90.2647 58.8564C90.9367 58.4831 91.7047 58.2964 92.5687 58.2964C93.4007 58.2964 94.142 58.4777 94.7927 58.8404C95.4434 59.2031 95.95 59.7151 96.3127 60.3764C96.6754 61.0271 96.8567 61.7791 96.8567 62.6324ZM94.9527 62.0564C94.942 61.3844 94.702 60.8457 94.2327 60.4404C93.7634 60.0351 93.182 59.8324 92.4887 59.8324C91.8594 59.8324 91.3207 60.0351 90.8727 60.4404C90.4247 60.8351 90.158 61.3737 90.0727 62.0564H94.9527Z" fill="white"/>
<path d="M100.78 59.9284V64.8084C100.78 65.1391 100.854 65.3791 101.004 65.5284C101.164 65.6671 101.43 65.7364 101.804 65.7364H102.924V67.2564H101.484C100.662 67.2564 100.033 67.0644 99.5957 66.6804C99.1584 66.2964 98.9397 65.6724 98.9397 64.8084V59.9284H97.8997V58.4404H98.9397V56.2484H100.78V58.4404H102.924V59.9284H100.78Z" fill="white"/>
</svg>
