<svg width="117" height="126" viewBox="0 0 117 126" fill="none" xmlns="http://www.w3.org/2000/svg">
<mask id="path-1-inside-1_2_78" fill="white">
<path d="M33.4783 72.9502C43.6745 67.423 60.2198 67.3973 70.4332 72.8928L112.403 95.4751C114.835 96.7836 114.838 98.9111 112.41 100.227L77.1737 119.328C70.3762 123.013 59.346 123.03 52.5371 119.366L15.8511 99.627C7.09677 94.9166 7.08488 87.2575 15.8245 82.5199L33.4783 72.9502Z"/>
</mask>
<path d="M33.4783 72.9502C43.6745 67.423 60.2198 67.3973 70.4332 72.8928L112.403 95.4751C114.835 96.7836 114.838 98.9111 112.41 100.227L77.1737 119.328C70.3762 123.013 59.346 123.03 52.5371 119.366L15.8511 99.627C7.09677 94.9166 7.08488 87.2575 15.8245 82.5199L33.4783 72.9502Z" fill="#47B5FF"/>
<path d="M51.9402 62.9424L116.806 97.8443L51.9402 62.9424ZM78.0543 119.802C70.7712 123.75 58.9532 123.768 51.6579 119.843L14.972 100.104C5.73129 95.1315 5.71873 87.0469 14.9439 82.0461L16.7051 82.9938C8.45103 87.4681 8.46227 94.7017 16.7302 99.1504L53.4162 118.89C59.7388 122.292 69.9811 122.276 76.293 118.854L78.0543 119.802ZM14.972 100.104C5.73129 95.1315 5.71873 87.0469 14.9439 82.0461L31.7185 72.9529C42.4003 67.1626 59.7334 67.1356 70.4332 72.8928C60.7061 67.659 44.5551 67.8968 34.3589 73.424L16.7051 82.9938C8.45103 87.4681 8.46227 94.7017 16.7302 99.1504L14.972 100.104ZM112.403 95.4751C115.321 97.0453 115.325 99.5983 112.412 101.177L78.0543 119.802C70.7712 123.75 58.9532 123.768 51.6579 119.843L53.4162 118.89C59.7388 122.292 69.9811 122.276 76.293 118.854L111.53 99.7533C113.957 98.4373 114.348 96.5219 112.403 95.4751Z" fill="#DFF6FF" mask="url(#path-1-inside-1_2_78)"/>
<mask id="path-3-inside-2_2_78" fill="white">
<path d="M52.1699 62.8178L112.69 95.3815C113.663 95.9048 113.664 96.7559 112.693 97.2823L75.9528 117.198C69.6408 120.62 59.3985 120.636 53.076 117.234L13.6907 96.0421C7.36816 92.6402 7.35956 87.1086 13.6715 83.687L52.1699 62.8178Z"/>
</mask>
<path d="M52.1699 62.8178L112.69 95.3815C113.663 95.9048 113.664 96.7559 112.693 97.2823L75.9528 117.198C69.6408 120.62 59.3985 120.636 53.076 117.234L13.6907 96.0421C7.36816 92.6402 7.35956 87.1086 13.6715 83.687L52.1699 62.8178Z" fill="#1363DF"/>
<path d="M52.1699 62.8178L114.451 96.3291L52.1699 62.8178ZM76.8334 117.672C70.0359 121.357 59.0058 121.374 52.1968 117.71L12.8116 96.5187C6.00267 92.855 5.99341 86.898 12.7909 83.2132L14.5521 84.1608C8.72571 87.3192 8.73365 92.4253 14.5699 95.5655L53.9551 116.757C59.7913 119.898 69.2458 119.883 75.0722 116.725L76.8334 117.672ZM12.8116 96.5187C6.00267 92.855 5.99341 86.898 12.7909 83.2132L51.2893 62.344L53.0506 63.2916L14.5521 84.1608C8.72571 87.3192 8.73365 92.4253 14.5699 95.5655L12.8116 96.5187ZM112.69 95.3815C114.149 96.1665 114.151 97.443 112.694 98.2326L76.8334 117.672C70.0359 121.357 59.0058 121.374 52.1968 117.71L53.9551 116.757C59.7913 119.898 69.2458 119.883 75.0722 116.725L111.812 96.8084C112.783 96.282 113.176 95.6432 112.69 95.3815Z" fill="#DFF6FF" mask="url(#path-3-inside-2_2_78)"/>
<path d="M52.8446 70.4752L100.248 95.9811L78.9975 107.5C75.8415 109.211 70.7203 109.219 67.559 107.518L28.9621 86.7506C27.2599 85.8347 27.2576 84.3454 28.9569 83.4242L52.8446 70.4752Z" fill="#47B5FF" stroke="#DFF6FF"/>
<rect x="0.000738621" y="0.475196" width="17.3044" height="8.86121" rx="4.4306" transform="matrix(0.880617 0.473829 -0.87914 0.476564 37.0872 95.2484)" fill="#47B5FF" stroke="#DFF6FF"/>
<mask id="path-7-inside-3_2_78" fill="white">
<path d="M51.6304 17C51.6304 7.61115 58.3329 3.60639 66.6009 8.05509L105.495 28.9828C111.332 32.1231 116.063 40.0414 116.063 46.6688V94.1376C116.063 96.3467 114.486 97.289 112.54 96.2423L74.5264 75.7884C61.8813 68.9845 51.6304 51.8282 51.6304 37.4688V17Z"/>
</mask>
<path d="M51.6304 17C51.6304 7.61115 58.3329 3.60639 66.6009 8.05509L105.495 28.9828C111.332 32.1231 116.063 40.0414 116.063 46.6688V94.1376C116.063 96.3467 114.486 97.289 112.54 96.2423L74.5264 75.7884C61.8813 68.9845 51.6304 51.8282 51.6304 37.4688V17Z" fill="#47B5FF"/>
<path d="M50.7498 16.5262C50.7498 6.58505 57.8466 2.3447 66.6009 7.05509L105.495 27.9828C111.818 31.3848 116.943 39.9629 116.943 47.1426L115.182 46.1949C115.182 40.1198 110.845 32.8614 105.495 29.9828L66.6009 9.05509C58.8193 4.86807 52.511 8.63727 52.511 17.4738L50.7498 16.5262ZM116.063 98.1376L51.6304 63.4688L116.063 98.1376ZM74.5264 75.7884C61.3949 68.7228 50.7498 50.9067 50.7498 35.995V16.5262C50.7498 6.58505 57.8466 2.3447 66.6009 7.05509V9.05509C58.8193 4.86807 52.511 8.63727 52.511 17.4738V37.9426C52.511 52.3021 62.3676 69.2462 74.5264 75.7884ZM105.495 27.9828C111.818 31.3848 116.943 39.9629 116.943 47.1426V93.6114C116.943 96.3728 114.972 97.5507 112.54 96.2423C113.999 97.0273 115.182 95.8729 115.182 93.6638V46.1949C115.182 40.1198 110.845 32.8614 105.495 29.9828V27.9828Z" fill="#DFF6FF" mask="url(#path-7-inside-3_2_78)"/>
<path d="M63.0784 9.48604L102.534 30.7158C108.614 33.9869 113.542 42.2351 113.542 49.1387V96.1206L52.0707 63.0451V16.0632C52.0707 9.15962 56.999 6.21493 63.0784 9.48604Z" fill="#1363DF" stroke="#DFF6FF"/>
</svg>
