<svg width="115" height="114" viewBox="0 0 115 114" fill="none" xmlns="http://www.w3.org/2000/svg" >
<path d="M21 1H102C108.627 1 114 6.37258 114 13V93C114 104.046 105.046 113 94 113H26C12.1929 113 1 101.807 1 88V21C1 9.95431 9.95431 1 21 1Z" fill="#47B5FF" stroke="#DFF6FF" stroke-width="2"/>
<rect x="1" y="8" width="105" height="105" rx="12" fill="#1363DF" stroke="#DFF6FF" stroke-width="2"/>
<path d="M31.3562 60.112C30.6095 60.112 29.9375 59.984 29.3402 59.728C28.7429 59.4613 28.2735 59.088 27.9322 58.608C27.5909 58.128 27.4202 57.568 27.4202 56.928H29.3722C29.4149 57.408 29.6015 57.8027 29.9322 58.112C30.2735 58.4213 30.7482 58.576 31.3562 58.576C31.9855 58.576 32.4762 58.4267 32.8282 58.128C33.1802 57.8187 33.3562 57.424 33.3562 56.944C33.3562 56.5707 33.2442 56.2667 33.0202 56.032C32.8069 55.7973 32.5349 55.616 32.2042 55.488C31.8842 55.36 31.4362 55.2213 30.8602 55.072C30.1349 54.88 29.5429 54.688 29.0842 54.496C28.6362 54.2933 28.2522 53.984 27.9322 53.568C27.6122 53.152 27.4522 52.5973 27.4522 51.904C27.4522 51.264 27.6122 50.704 27.9322 50.224C28.2522 49.744 28.7002 49.376 29.2762 49.12C29.8522 48.864 30.5189 48.736 31.2762 48.736C32.3535 48.736 33.2335 49.008 33.9162 49.552C34.6095 50.0853 34.9935 50.8213 35.0682 51.76H33.0522C33.0202 51.3547 32.8282 51.008 32.4762 50.72C32.1242 50.432 31.6602 50.288 31.0842 50.288C30.5615 50.288 30.1349 50.4213 29.8042 50.688C29.4735 50.9547 29.3082 51.3387 29.3082 51.84C29.3082 52.1813 29.4095 52.464 29.6122 52.688C29.8255 52.9013 30.0922 53.072 30.4122 53.2C30.7322 53.328 31.1695 53.4667 31.7242 53.616C32.4602 53.8187 33.0575 54.0213 33.5162 54.224C33.9855 54.4267 34.3802 54.7413 34.7002 55.168C35.0309 55.584 35.1962 56.144 35.1962 56.848C35.1962 57.4133 35.0415 57.9467 34.7322 58.448C34.4335 58.9493 33.9909 59.3547 33.4042 59.664C32.8282 59.9627 32.1455 60.112 31.3562 60.112Z" fill="white"/>
<path d="M49.1884 51.184L46.4524 60H44.5324L42.7564 53.488L40.9804 60H39.0604L36.3084 51.184H38.1644L40.0044 58.272L41.8764 51.184H43.7804L45.5724 58.24L47.3964 51.184H49.1884Z" fill="white"/>
<path d="M51.4796 50.016C51.1489 50.016 50.8716 49.904 50.6476 49.68C50.4236 49.456 50.3116 49.1787 50.3116 48.848C50.3116 48.5173 50.4236 48.24 50.6476 48.016C50.8716 47.792 51.1489 47.68 51.4796 47.68C51.7996 47.68 52.0716 47.792 52.2956 48.016C52.5196 48.24 52.6316 48.5173 52.6316 48.848C52.6316 49.1787 52.5196 49.456 52.2956 49.68C52.0716 49.904 51.7996 50.016 51.4796 50.016ZM52.3756 51.184V60H50.5516V51.184H52.3756Z" fill="white"/>
<path d="M56.8983 52.672V57.552C56.8983 57.8827 56.973 58.1227 57.1223 58.272C57.2823 58.4107 57.549 58.48 57.9223 58.48H59.0423V60H57.6023C56.781 60 56.1516 59.808 55.7143 59.424C55.277 59.04 55.0583 58.416 55.0583 57.552V52.672H54.0183V51.184H55.0583V48.992H56.8983V51.184H59.0423V52.672H56.8983Z" fill="white"/>
<path d="M60.1154 55.584C60.1154 54.6773 60.2968 53.8827 60.6594 53.2C61.0328 52.5067 61.5448 51.9733 62.1954 51.6C62.8461 51.2267 63.5928 51.04 64.4354 51.04C65.5021 51.04 66.3821 51.296 67.0754 51.808C67.7794 52.3093 68.2541 53.0293 68.4994 53.968H66.5314C66.3714 53.5307 66.1154 53.1893 65.7634 52.944C65.4114 52.6987 64.9688 52.576 64.4354 52.576C63.6888 52.576 63.0914 52.8427 62.6434 53.376C62.2061 53.8987 61.9874 54.6347 61.9874 55.584C61.9874 56.5333 62.2061 57.2747 62.6434 57.808C63.0914 58.3413 63.6888 58.608 64.4354 58.608C65.4914 58.608 66.1901 58.144 66.5314 57.216H68.4994C68.2434 58.112 67.7634 58.8267 67.0594 59.36C66.3554 59.8827 65.4808 60.144 64.4354 60.144C63.5928 60.144 62.8461 59.9573 62.1954 59.584C61.5448 59.2 61.0328 58.6667 60.6594 57.984C60.2968 57.2907 60.1154 56.4907 60.1154 55.584Z" fill="white"/>
<path d="M74.8772 51.04C75.5492 51.04 76.1465 51.184 76.6692 51.472C77.2025 51.76 77.6185 52.1867 77.9172 52.752C78.2265 53.3173 78.3812 54 78.3812 54.8V60H76.5732V55.072C76.5732 54.2827 76.3759 53.68 75.9812 53.264C75.5865 52.8373 75.0479 52.624 74.3652 52.624C73.6825 52.624 73.1385 52.8373 72.7332 53.264C72.3385 53.68 72.1412 54.2827 72.1412 55.072V60H70.3172V48.16H72.1412V52.208C72.4505 51.8347 72.8399 51.5467 73.3092 51.344C73.7892 51.1413 74.3119 51.04 74.8772 51.04Z" fill="white"/>
<path d="M32.776 98.072V101H25.32V98.072H32.776ZM41.9948 98.072V101H34.5388V98.072H41.9948ZM51.2135 98.072V101H43.7575V98.072H51.2135ZM60.4323 98.072V101H52.9763V98.072H60.4323ZM69.651 98.072V101H62.195V98.072H69.651ZM78.8698 98.072V101H71.4138V98.072H78.8698Z" fill="white"/>
</svg>
