<svg width="32" height="32" viewBox="0 0 115 114" fill="none" xmlns="http://www.w3.org/2000/svg">
<path d="M21 1H102C108.627 1 114 6.37258 114 13V93C114 104.046 105.046 113 94 113H26C12.1929 113 1 101.807 1 88V21C1 9.95431 9.95431 1 21 1Z" fill="#47B5FF" stroke="#DFF6FF" stroke-width="2"/>
<rect x="1" y="8" width="105" height="105" rx="12" fill="#1363DF" stroke="#DFF6FF" stroke-width="2"/>
<path d="M32.776 98.072V101H25.32V98.072H32.776ZM41.9948 98.072V101H34.5388V98.072H41.9948ZM51.2135 98.072V101H43.7575V98.072H51.2135ZM60.4323 98.072V101H52.9763V98.072H60.4323ZM69.651 98.072V101H62.195V98.072H69.651ZM78.8698 98.072V101H71.4138V98.072H78.8698Z" fill="white"/>
<path d="M45.537 70H37.545L29.085 57.184V70H21.093V44.512H29.085L37.545 57.544V44.512H45.537V70Z" fill="#DFF6FF"/>
<path d="M48.9676 51.928C49.0396 49.072 49.8676 46.888 51.4516 45.376C53.0596 43.864 55.3276 43.108 58.2556 43.108C60.1516 43.108 61.7716 43.432 63.1156 44.08C64.4596 44.728 65.4676 45.604 66.1396 46.708C66.8356 47.812 67.1836 49.06 67.1836 50.452C67.1836 52.132 66.7876 53.452 65.9956 54.412C65.2036 55.348 64.3156 55.984 63.3316 56.32V56.464C66.2116 57.544 67.6516 59.548 67.6516 62.476C67.6516 64.012 67.2916 65.368 66.5716 66.544C65.8516 67.72 64.8196 68.632 63.4756 69.28C62.1556 69.928 60.5836 70.252 58.7596 70.252C55.6396 70.252 53.1916 69.508 51.4156 68.02C49.6396 66.532 48.7276 64.204 48.6796 61.036H56.4556C56.4076 61.9 56.5276 62.56 56.8156 63.016C57.1276 63.448 57.6556 63.664 58.3996 63.664C58.8316 63.664 59.1916 63.508 59.4796 63.196C59.7676 62.86 59.9116 62.428 59.9116 61.9C59.9116 61.228 59.6836 60.724 59.2276 60.388C58.7956 60.028 58.0516 59.848 56.9956 59.848H55.6636V53.404H56.9596C58.5916 53.5 59.4076 52.852 59.4076 51.46C59.4076 50.86 59.2756 50.416 59.0116 50.128C58.7716 49.84 58.4596 49.696 58.0756 49.696C57.1876 49.696 56.7436 50.44 56.7436 51.928H48.9676Z" fill="#DFF6FF"/>
<path d="M79.2881 63.952H86.9921V70H71.2961V44.512H79.2881V63.952Z" fill="#DFF6FF"/>
</svg>
